<?xml version="1.0" encoding="utf-8"?>
<!-- Generator: Adobe Illustrator 17.0.0, SVG Export Plug-In . SVG Version: 6.00 Build 0)  -->
<!DOCTYPE svg PUBLIC "-//W3C//DTD SVG 1.1//EN" "http://www.w3.org/Graphics/SVG/1.1/DTD/svg11.dtd">
<svg version="1.1" id="Layer_1" xmlns="http://www.w3.org/2000/svg" xmlns:xlink="http://www.w3.org/1999/xlink" x="0px" y="0px"
	 width="1750px" height="980px" viewBox="0 0 1750 980" enable-background="new 0 0 1750 980" xml:space="preserve">
<rect fill-rule="evenodd" clip-rule="evenodd" fill="#26136E" width="1750" height="980"/>
<g>
	<g>
		<path fill-rule="evenodd" clip-rule="evenodd" fill="#331178" d="M875,811.8c177.3,0,321.8-144.6,321.8-321.8
			c0-177.2-144.5-321.8-321.8-321.8c-177.2,0-321.8,144.6-321.8,321.8C553.2,667.3,697.8,811.8,875,811.8L875,811.8z"/>
		<path fill-rule="evenodd" clip-rule="evenodd" fill="#3A1580" d="M875,768.5c153.4,0,278.5-125.1,278.5-278.5
			S1028.4,211.5,875,211.5S596.5,336.6,596.5,490S721.6,768.5,875,768.5L875,768.5z"/>
		<path fill-rule="evenodd" clip-rule="evenodd" fill="#44158F" d="M875,701.2c116.3,0,211.2-94.9,211.2-211.2
			S991.3,278.8,875,278.8S663.8,373.7,663.8,490S758.7,701.2,875,701.2L875,701.2z"/>
		<path fill-rule="evenodd" clip-rule="evenodd" fill="#521B96" d="M875,634.5c79.6,0,144.5-64.9,144.5-144.5
			c0-79.6-64.9-144.5-144.5-144.5c-79.6,0-144.5,64.9-144.5,144.5C730.5,569.6,795.4,634.5,875,634.5L875,634.5z"/>
	</g>
	<g>
		<path fill-rule="evenodd" clip-rule="evenodd" fill="#341270" d="M215.8,299.1c66.6,0,120.9-54.4,120.9-121
			c0-66.6-54.3-120.9-120.9-120.9s-121,54.3-121,120.9C94.9,244.7,149.2,299.1,215.8,299.1L215.8,299.1z"/>
		<path fill-rule="evenodd" clip-rule="evenodd" fill="#3D1273" d="M215.8,282.8c57.6,0,104.6-47,104.6-104.7
			c0-57.6-47-104.6-104.6-104.6c-57.6,0-104.7,47-104.7,104.6C111.2,235.8,158.2,282.8,215.8,282.8L215.8,282.8z"/>
		<path fill-rule="evenodd" clip-rule="evenodd" fill="#491279" d="M215.8,257.5c43.7,0,79.3-35.7,79.3-79.4
			c0-43.7-35.7-79.3-79.3-79.3c-43.7,0-79.4,35.7-79.4,79.3C136.5,221.8,172.1,257.5,215.8,257.5L215.8,257.5z"/>
		<path fill-rule="evenodd" clip-rule="evenodd" fill="#55147F" d="M215.8,232.4c29.9,0,54.3-24.4,54.3-54.3
			c0-29.9-24.4-54.3-54.3-54.3c-29.9,0-54.3,24.4-54.3,54.3C161.5,208,185.9,232.4,215.8,232.4L215.8,232.4z"/>
	</g>
	<g>
		<path fill-rule="evenodd" clip-rule="evenodd" fill="#23196E" d="M1544.6,959.2c98.7,0,179.1-80.5,179.1-179.1
			c0-98.7-80.5-179.2-179.1-179.2c-98.7,0-179.2,80.5-179.2,179.2C1365.4,878.8,1445.8,959.2,1544.6,959.2L1544.6,959.2z"/>
		<path fill-rule="evenodd" clip-rule="evenodd" fill="#211F6F" d="M1544.6,935.1c85.4,0,155-69.6,155-155c0-85.4-69.6-155-155-155
			c-85.4,0-155,69.6-155,155C1389.5,865.5,1459.2,935.1,1544.6,935.1L1544.6,935.1z"/>
		<path fill-rule="evenodd" clip-rule="evenodd" fill="#1D2870" d="M1544.6,897.6c64.7,0,117.5-52.8,117.5-117.5
			s-52.8-117.6-117.5-117.6c-64.8,0-117.6,52.8-117.6,117.6S1479.8,897.6,1544.6,897.6L1544.6,897.6z"/>
		<path fill-rule="evenodd" clip-rule="evenodd" fill="#1A2E72" d="M1544.6,860.5c44.3,0,80.4-36.1,80.4-80.4
			c0-44.3-36.1-80.4-80.4-80.4c-44.3,0-80.4,36.1-80.4,80.4C1464.1,824.4,1500.2,860.5,1544.6,860.5L1544.6,860.5z"/>
	</g>
	<g>
		<path fill-rule="evenodd" clip-rule="evenodd" fill="#341270" d="M1458,251c25.2,0,45.7-20.5,45.7-45.7
			c0-25.2-20.5-45.7-45.7-45.7c-25.2,0-45.7,20.5-45.7,45.7C1412.3,230.5,1432.8,251,1458,251L1458,251z"/>
		<path fill-rule="evenodd" clip-rule="evenodd" fill="#3D1273" d="M1458,244.9c21.8,0,39.6-17.8,39.6-39.5
			c0-21.8-17.8-39.6-39.6-39.6c-21.8,0-39.5,17.8-39.5,39.6C1418.4,227.1,1436.2,244.9,1458,244.9L1458,244.9z"/>
		<path fill-rule="evenodd" clip-rule="evenodd" fill="#491279" d="M1458,235.3c16.5,0,30-13.5,30-30s-13.5-30-30-30
			c-16.5,0-30,13.5-30,30S1441.4,235.3,1458,235.3L1458,235.3z"/>
		<path fill-rule="evenodd" clip-rule="evenodd" fill="#55147F" d="M1458,225.8c11.3,0,20.5-9.2,20.5-20.5
			c0-11.3-9.2-20.5-20.5-20.5c-11.3,0-20.5,9.2-20.5,20.5C1437.5,216.6,1446.7,225.8,1458,225.8L1458,225.8z"/>
	</g>
	<g>
		<path fill-rule="evenodd" clip-rule="evenodd" fill="#241C6D" d="M160,939.4c48.9,0,88.7-39.8,88.7-88.7
			c0-48.9-39.9-88.7-88.7-88.7c-48.9,0-88.8,39.9-88.8,88.7C71.3,899.5,111.1,939.4,160,939.4L160,939.4z"/>
		<path fill-rule="evenodd" clip-rule="evenodd" fill="#23236D" d="M160,927.4c42.3,0,76.8-34.5,76.8-76.8
			c0-42.3-34.5-76.8-76.8-76.8c-42.3,0-76.8,34.5-76.8,76.8C83.2,892.9,117.7,927.4,160,927.4L160,927.4z"/>
		<path fill-rule="evenodd" clip-rule="evenodd" fill="#222C6D" d="M160,908.9c32.1,0,58.2-26.1,58.2-58.2
			c0-32.1-26.1-58.2-58.2-58.2c-32.1,0-58.2,26.1-58.2,58.2C101.8,882.7,127.9,908.9,160,908.9L160,908.9z"/>
		<path fill-rule="evenodd" clip-rule="evenodd" fill="#22356E" d="M160,890.5c21.9,0,39.8-17.9,39.8-39.8s-17.9-39.8-39.8-39.8
			c-21.9,0-39.8,17.9-39.8,39.8S138.1,890.5,160,890.5L160,890.5z"/>
	</g>
	<g>
		<path fill-rule="evenodd" clip-rule="evenodd" fill="#25176D" d="M328.5,477c19,0,34.6-15.5,34.6-34.6s-15.5-34.5-34.6-34.5
			c-19,0-34.5,15.5-34.5,34.5S309.5,477,328.5,477L328.5,477z"/>
		<path fill-rule="evenodd" clip-rule="evenodd" fill="#241C6D" d="M328.5,472.4c16.5,0,29.9-13.4,29.9-29.9
			c0-16.5-13.4-29.9-29.9-29.9c-16.4,0-29.9,13.4-29.9,29.9C298.6,458.9,312.1,472.4,328.5,472.4L328.5,472.4z"/>
		<path fill-rule="evenodd" clip-rule="evenodd" fill="#23226D" d="M328.5,465.1c12.5,0,22.7-10.2,22.7-22.7
			c0-12.5-10.2-22.7-22.7-22.7c-12.5,0-22.7,10.2-22.7,22.7C305.8,454.9,316.1,465.1,328.5,465.1L328.5,465.1z"/>
		<path fill-rule="evenodd" clip-rule="evenodd" fill="#22296D" d="M328.5,458c8.6,0,15.5-7,15.5-15.5s-7-15.5-15.5-15.5
			c-8.5,0-15.5,7-15.5,15.5S320,458,328.5,458L328.5,458z"/>
	</g>
</g>
<g>
	<path fill-rule="evenodd" clip-rule="evenodd" fill="#6699FF" d="M286.4,628c28.2,0,51.2-23,51.2-51.2c0-28.2-23-51.2-51.2-51.2
		c-28.2,0-51.2,23-51.2,51.2C235.2,604.9,258.2,628,286.4,628L286.4,628z"/>
	<path fill-rule="evenodd" clip-rule="evenodd" fill="#66BDFF" d="M321.6,539.5c1.9,1.8,3.7,3.8,5.4,5.9c-3.9,0.1-7.8,0.1-11.8,0.1
		c-25,0-48.1-1.3-66.6-3.4c0.7-0.8,1.4-1.5,2.2-2.3c10,0.5,20.7,0.7,31.6,0.7C296.3,540.5,309.5,540.2,321.6,539.5L321.6,539.5z
		 M333.3,556c0.3,0.7,0.6,1.5,0.9,2.2c-13.2,14.5-42.3,30.2-75.4,39.5c-5.9,1.6-11.6,3-17.1,4.1c-2.3-4.1-4-8.5-5.1-13.2
		c11.2-0.8,24.3-3.1,38.3-7C297.5,575.3,318.3,566,333.3,556L333.3,556z M336.1,589.6c-0.1,0.5-0.3,1.1-0.5,1.6
		c-10.6,4.9-22.4,9.2-34.8,12.7c-20.4,5.8-38.8,8-52.5,7.1c-2-2.3-3.9-4.8-5.5-7.4c13.4,4.5,37.8,3.3,66-4.7
		C318.4,596.3,327.5,593.1,336.1,589.6L336.1,589.6z M319.2,616.2c-4.4,3.7-9.5,6.6-15,8.6c-13.6-0.1-26.5-0.5-38.4-1.2
		c-5.8-2.6-11-6.1-15.4-10.5c18.1,1.9,40.3,3.1,64.2,3.1C316.1,616.2,317.6,616.2,319.2,616.2L319.2,616.2z"/>
	<path fill-rule="evenodd" clip-rule="evenodd" fill="#426EC7" d="M323.4,612.3C314.1,622,301,628,286.4,628
		c-28.3,0-51.2-23-51.2-51.2c0-28.3,23-51.2,51.2-51.2l-16.8,11.2l2.8,4.8l-3.9,9.7l3.2,12.7l6.3,3.7l0.8,7.1l-5.7,7.4l-11-1.9
		l-0.5,0.5l-7,12.5l5.1,9.1l0.5,0.1l13.8,0.6l9.1-5.7l3.5,4.2l4.3,0.8l-1.1,4.4c0.4,0,0.6,0,0.6,0l10.5,0.9c2-1,0.6-0.3,0.8-0.5
		l6.7-7.4l-9.3-5.7l2-4.8l9.2-3.1l4.2,7.2l-2.6,6.5l3.1,4.2l-8.6,7.3l-3.4-1.1l-1.5,2.5l6,3.7l9.7-5.3L323.4,612.3z M319.1,584.5
		l-4.5-0.8l-0.1-3l3.8-1.1l0.2-0.1l2.5,1.9l-0.3,1.2L319.1,584.5z M265.3,600.2l-0.8-0.8l0.9-1.9l0.9,0.7L265.3,600.2z M277.2,588.1
		l-2-1.1l-1.1,0.9v1.7l2,0.8l2-2.5L277.2,588.1z M295.7,538.9l-1.2-2.2l0.9-1l1.7,0.3v2.6L295.7,538.9z M284.8,553.7l-2-2.5l1.4-0.8
		l2,0.6l0.3,2L284.8,553.7z M296.5,560.2l-9.6,0.3l-2,5.2l3.9,3.4l5.1-3.2l-0.8-2.9l2.8-0.6L296.5,560.2z M262.2,541.4l-4.8,1.2
		l-1.7,6l6.6,3.1l3.1-4.9L262.2,541.4z M252.7,572.5l-0.5,1.6l1.6,1.2l0.8-2.2L252.7,572.5z M254.3,579.4l-5.2-1.4l-2.5,4.5l4.3,3.1
		l6.3-5.3L254.3,579.4z M264.8,566.5l3.1-0.3l-0.1,2h-2.9V566.5z M257.4,557.4l-3.4-0.1v2.3l3.7,1.1L257.4,557.4z"/>
	<path fill-rule="evenodd" clip-rule="evenodd" fill="#2F83C4" d="M319.2,616.2c-4.4,3.7-9.5,6.6-15,8.6
		c-13.6-0.1-26.5-0.5-38.4-1.2c-5.8-2.6-11-6.1-15.4-10.5c16.2,1.8,35.6,2.8,56.6,3l0.7,0.4l0.7-0.4c2.1,0,4.2,0,6.3,0
		C316.1,616.2,317.6,616.2,319.2,616.2L319.2,616.2z M248.4,611c-2-2.3-3.9-4.8-5.5-7.4c10.5,3.5,27.6,3.5,48-0.4l-0.8,3.4
		C274,610.4,259.6,611.8,248.4,611L248.4,611z M241.8,601.9c-2.3-4.1-4-8.5-5.1-13.2c6.9-0.5,14.4-1.5,22.5-3.1l-4.3,7.7l2.7,4.9
		C252.1,599.6,246.9,600.8,241.8,601.9L241.8,601.9z M248.6,542.1c0.7-0.8,1.4-1.5,2.2-2.3c6.8,0.3,13.8,0.5,21,0.6l0.6,1l-1,2.6
		c-2.7-0.2-5.3-0.4-7.8-0.6l-1.3-2.2l-4.8,1.2l-0.1,0.4C254.3,542.7,251.4,542.5,248.6,542.1L248.6,542.1z M306.4,602.3l2.2-2.4
		l-0.9-0.6c0.4-0.1,0.8-0.2,1.3-0.3c1.4-0.4,2.7-0.8,4.1-1.2l-0.9,2.2l0.3,0.4C310.3,601,308.4,601.7,306.4,602.3L306.4,602.3z
		 M277.2,588.1l-2-1.1l-1.1,0.9v1.7l2,0.8l2-2.5L277.2,588.1z"/>
	<path fill-rule="evenodd" clip-rule="evenodd" fill="#DF99FF" d="M286.4,525.5c28.3,0,51.2,22.9,51.2,51.2
		c0,22.9-15,42.3-35.8,48.9c18.8-7.6,32-26,32-47.5c0-28.3-22.9-51.2-51.2-51.2c-5.4,0-10.5,0.8-15.4,2.3
		C273.1,526.8,279.7,525.5,286.4,525.5L286.4,525.5z"/>
</g>
<g>
	<path fill-rule="evenodd" clip-rule="evenodd" fill="#FF6666" d="M1437.5,590.6c38.8,0,70.4-31.6,70.4-70.4
		c0-38.7-31.6-70.3-70.4-70.3c-38.7,0-70.3,31.6-70.3,70.3C1367.2,559,1398.8,590.6,1437.5,590.6L1437.5,590.6z"/>
	<path fill-rule="evenodd" clip-rule="evenodd" fill="#C43F57" d="M1437.5,449.9c38.9,0,70.4,31.5,70.4,70.3
		c0,38.9-31.5,70.4-70.4,70.4c-7.1-1.9-22-3.1-19.6-9.7c1.2-3.3,10.6,1.3,19.9,2.1c12.4,0.9,25.4-1.6,26.9-5.6c2.1-6-12.8-2-30-2.9
		c-20.4-1.1-43.8-7.1-43.2-16.6c0.5-7.2,21,2.1,41.2,3.9c20.6,1.9,40.9-3.8,42-15.8c1.1-12.2-18.8-9.1-41.8-9.6
		c-21.5-0.5-48.8-7.8-49.7-20.8c-1-14,21-8.2,41.8-8.6c21-0.4,40.9-7.1,37.2-21.1c-2-7.6-14.5-2.8-30-2.1c-15.6,0.7-34.3-2.6-35.5-9
		C1394.5,462.8,1422.7,451.4,1437.5,449.9L1437.5,449.9z"/>
	<path fill-rule="evenodd" clip-rule="evenodd" fill="#DF99FF" d="M1437.5,449.9c2.3,0,4.6,0.1,6.8,0.3c-0.5,0-1.1,0-1.6,0
		c-38.9,0-70.4,31.5-70.4,70.4c0,36.6,27.9,66.6,63.6,70.1c-38.1-0.8-68.8-32-68.8-70.4C1367.2,481.4,1398.7,449.9,1437.5,449.9
		L1437.5,449.9z"/>
</g>
<g>
	<path fill-rule="evenodd" clip-rule="evenodd" fill="#9966FF" d="M1419.8,794.8c117.8,0,217.5,78,250.1,185.2h-500.1
		C1202.3,872.8,1301.9,794.8,1419.8,794.8L1419.8,794.8z"/>
	<path fill-rule="evenodd" clip-rule="evenodd" fill="#321791" d="M1647.5,927.9c9.2,16.3,16.8,33.8,22.3,52.1h-488.6
		c36.2-100.8,132.7-172.9,245.9-172.9C1519.8,807.1,1601.1,855.3,1647.5,927.9L1647.5,927.9z"/>
	<path fill-rule="evenodd" clip-rule="evenodd" fill="#220B78" d="M1632.5,925.1c6.9,12.2,12.5,41.3,16.7,54.9H1285
		c18.4-51.2,42.8-32.5,92.7-53.7c23.3-9.9,63.7-75.2,90.6-75.2c25.8,0,51,18,73.5,27.1C1579.6,893.5,1610.8,891.2,1632.5,925.1
		L1632.5,925.1z M1359.4,836c2.1,0,3.9,1.7,3.9,4c0,2.2-1.8,4-3.9,4c-2.2,0-3.9-1.8-3.9-4C1355.5,837.8,1357.2,836,1359.4,836
		L1359.4,836z M1431.6,822.3c2.6,0,4.6,2.1,4.6,4.6c0,2.6-2,4.7-4.6,4.7c-2.5,0-4.6-2.1-4.6-4.7
		C1427.1,824.4,1429.1,822.3,1431.6,822.3L1431.6,822.3z M1413.3,843.1c3.5,0,6.4,2.9,6.4,6.4c0,3.5-2.8,6.4-6.4,6.4
		c-3.5,0-6.3-2.9-6.3-6.4C1406.9,846,1409.8,843.1,1413.3,843.1L1413.3,843.1z M1305.7,905.7c5.3,0,9.6,4.4,9.6,9.8
		c0,5.4-4.3,9.8-9.6,9.8c-5.4,0-9.7-4.4-9.7-9.8C1296.1,910.1,1300.4,905.7,1305.7,905.7L1305.7,905.7z M1257.7,902.4
		c11.1,0,20.1,9.1,20.1,20.4c0,11.2-9,20.4-20.1,20.4c-11.1,0-20.1-9.1-20.1-20.4C1237.7,911.5,1246.7,902.4,1257.7,902.4
		L1257.7,902.4z"/>
</g>
<g>
	<path fill-rule="evenodd" clip-rule="evenodd" fill="#7C1370" d="M511.8,266.5c8.4,0,15.3-6.9,15.3-15.3c0-8.4-6.9-15.3-15.3-15.3
		c-8.4,0-15.3,6.9-15.3,15.3C496.5,259.7,503.4,266.5,511.8,266.5L511.8,266.5z"/>
	<path fill-rule="evenodd" clip-rule="evenodd" fill="#BE2385" d="M520.2,238.4c4.2,2.8,6.9,7.5,6.9,12.8c0,8.5-6.9,15.3-15.3,15.3
		c-0.6,0-1.2,0-1.8-0.1c-4.2-2.7-6.9-7.5-6.9-12.8c0-8.4,6.9-15.3,15.3-15.3C519,238.3,519.6,238.4,520.2,238.4L520.2,238.4z"/>
</g>
<g>
	<path fill-rule="evenodd" clip-rule="evenodd" fill="#6838A4" d="M875,595.4c58.1,0,105.4-47.4,105.4-105.4S933.1,384.6,875,384.6
		c-58.1,0-105.4,47.4-105.4,105.4S816.9,595.4,875,595.4L875,595.4z"/>
	<path fill-rule="evenodd" clip-rule="evenodd" fill="#794DAE" d="M875,572.9c45.6,0,82.9-37.2,82.9-82.9s-37.2-82.9-82.9-82.9
		c-45.6,0-82.9,37.2-82.9,82.9S829.4,572.9,875,572.9L875,572.9z"/>
	<path fill-rule="evenodd" clip-rule="evenodd" fill="#9E7EC5" d="M875,554.7c35.6,0,64.7-29,64.7-64.7s-29-64.7-64.7-64.7
		c-35.6,0-64.7,29.1-64.7,64.7S839.4,554.7,875,554.7L875,554.7z"/>
	<path fill-rule="evenodd" clip-rule="evenodd" fill="#FFFFFF" d="M875,546c30.8,0,56-25.1,56-56c0-30.8-25.1-56-56-56
		c-30.8,0-56,25.2-56,56C819,520.8,844.2,546,875,546L875,546z"/>
</g>
<g>
	<path fill-rule="evenodd" clip-rule="evenodd" fill="#336666" d="M1231.2,189.9c15.5,0,28.1-12.6,28.1-28.1s-12.6-28.1-28.1-28.1
		c-15.5,0-28.1,12.6-28.1,28.1S1215.7,189.9,1231.2,189.9L1231.2,189.9z"/>
	<path fill-rule="evenodd" clip-rule="evenodd" fill="#669999" d="M1247.4,184.8c-4.6,3.3-10.2,5.1-16.2,5.1
		c-15.5,0-28.1-12.6-28.1-28.1c0-4.3,1-8.4,2.8-12.1c4.6-3.3,10.2-5.2,16.2-5.2c15.5,0,28.1,12.6,28.1,28.1
		C1250.2,177,1249.2,181.1,1247.4,184.8L1247.4,184.8z M1238.4,143.3c1,0,1.9,0.8,1.9,1.9c0,1-0.9,1.9-1.9,1.9
		c-1.1,0-1.9-0.9-1.9-1.9C1236.4,144.1,1237.3,143.3,1238.4,143.3L1238.4,143.3z M1250.1,151.3c0.4,0,0.7,0.3,0.7,0.7
		c0,0.4-0.3,0.7-0.7,0.7c-0.4,0-0.7-0.4-0.7-0.7C1249.4,151.7,1249.7,151.3,1250.1,151.3L1250.1,151.3z"/>
	<path fill-rule="evenodd" clip-rule="evenodd" fill="#336666" d="M1221.4,148.7c1.6,0,3,1.3,3,3c0,1.7-1.4,3-3,3c-1.7,0-3-1.3-3-3
		C1218.4,150,1219.7,148.7,1221.4,148.7L1221.4,148.7z M1230.1,172.2c0.4,0,0.7,0.3,0.7,0.7c0,0.4-0.3,0.7-0.7,0.7
		c-0.4,0-0.7-0.3-0.7-0.7C1229.4,172.5,1229.7,172.2,1230.1,172.2L1230.1,172.2z M1235,153.8c0.4,0,0.7,0.3,0.7,0.7
		c0,0.4-0.3,0.7-0.7,0.7c-0.4,0-0.7-0.3-0.7-0.7C1234.3,154.1,1234.7,153.8,1235,153.8L1235,153.8z M1243.3,163.3
		c0.4,0,0.7,0.3,0.7,0.7c0,0.4-0.3,0.7-0.7,0.7c-0.4,0-0.7-0.4-0.7-0.7C1242.6,163.7,1243,163.3,1243.3,163.3L1243.3,163.3z
		 M1239.1,177.1c0.8,0,1.4,0.6,1.4,1.4c0,0.8-0.6,1.5-1.4,1.5c-0.8,0-1.4-0.7-1.4-1.5C1237.7,177.7,1238.3,177.1,1239.1,177.1
		L1239.1,177.1z M1226.6,184.5c0.8,0,1.5,0.6,1.5,1.4c0,0.8-0.7,1.5-1.5,1.5c-0.8,0-1.4-0.7-1.4-1.5
		C1225.2,185.1,1225.8,184.5,1226.6,184.5L1226.6,184.5z M1245.9,180c1,0,1.9,0.9,1.9,1.9c0,1.1-0.9,1.9-1.9,1.9
		c-1.1,0-1.9-0.8-1.9-1.9C1244,180.9,1244.9,180,1245.9,180L1245.9,180z M1239.5,158.1c1,0,1.9,0.9,1.9,1.9c0,1.1-0.9,1.9-1.9,1.9
		c-1.1,0-1.9-0.9-1.9-1.9C1237.5,159,1238.4,158.1,1239.5,158.1L1239.5,158.1z M1213,159.8c1.1,0,1.9,0.9,1.9,1.9
		c0,1-0.8,1.9-1.9,1.9c-1.1,0-1.9-0.9-1.9-1.9C1211.1,160.7,1212,159.8,1213,159.8L1213,159.8z"/>
</g>
<g>
	<path fill-rule="evenodd" clip-rule="evenodd" fill="#FFFFCC" d="M308.6,932.5c0.9,0,1.9,0.2,2.7,0.7c0.8,0.5,96-53.4,96.5-52.6
		c0.6,0.9-93.6,56.4-93.6,57.5c0,3.1-2.5,5.5-5.5,5.5c-3,0-5.5-2.4-5.5-5.5C303.1,935,305.6,932.5,308.6,932.5L308.6,932.5z"/>
	<path fill-rule="evenodd" clip-rule="evenodd" fill="#FFFF66" d="M308.6,942.3c2.4,0,4.3-2,4.3-4.3s-1.9-4.3-4.3-4.3
		s-4.3,1.9-4.3,4.3S306.3,942.3,308.6,942.3L308.6,942.3z"/>
	<path fill-rule="evenodd" clip-rule="evenodd" fill="#FFCC00" d="M308.3,941.3c1.6,0,2.9-1.3,2.9-2.9c0-1.6-1.3-2.9-2.9-2.9
		c-1.6,0-2.9,1.3-2.9,2.9C305.4,940,306.7,941.3,308.3,941.3L308.3,941.3z"/>
	<path fill-rule="evenodd" clip-rule="evenodd" fill="#FFFFCC" d="M426.8,869c0.2-0.1,146.8-85.3,147-85
		c0.2,0.3-145.7,86.5-146,86.7C425.8,871.9,425,870.1,426.8,869L426.8,869z"/>
</g>
<g>
	<path fill-rule="evenodd" clip-rule="evenodd" fill="#9966FF" d="M0,21.2c90.9,70.5,149.5,180.7,149.5,304.7
		c0,123.9-58.6,234.2-149.5,304.7V21.2z"/>
	<path fill-rule="evenodd" clip-rule="evenodd" fill="#003399" d="M0,590.2V27.1c75.3,70.3,122.3,170.4,122.3,281.5
		S75.3,519.9,0,590.2L0,590.2z"/>
	<path fill-rule="evenodd" clip-rule="evenodd" fill="#082C73" d="M0,466.4V46.8c18.8,17.6,47.3,42.9,60.1,65.5
		c21.1,37.1,10.3,62.2,10.3,107.9c0,27.1,25,90.1,19,116.8C79.1,382.8,66,439.5,0,466.4L0,466.4z"/>
</g>
<g>
	<path fill-rule="evenodd" clip-rule="evenodd" fill="#FFFFFF" d="M644,115.4c1.4,0,2.5-1.1,2.5-2.5c0-1.4-1.1-2.4-2.5-2.4
		s-2.5,1.1-2.5,2.4C641.5,114.3,642.6,115.4,644,115.4L644,115.4z"/>
	<path fill-rule="evenodd" clip-rule="evenodd" fill="#FFFFFF" d="M482.7,85.9c1.4,0,2.5-1.1,2.5-2.5c0-1.4-1.1-2.5-2.5-2.5
		s-2.5,1.1-2.5,2.5C480.2,84.8,481.4,85.9,482.7,85.9L482.7,85.9z"/>
	<path fill-rule="evenodd" clip-rule="evenodd" fill="#FFFFFF" d="M418.5,283.5c1.4,0,2.5-1.1,2.5-2.5c0-1.4-1.1-2.5-2.5-2.5
		c-1.4,0-2.5,1.1-2.5,2.5C416,282.3,417.1,283.5,418.5,283.5L418.5,283.5z"/>
	<path fill-rule="evenodd" clip-rule="evenodd" fill="#FFFFFF" d="M556.2,534.3c1.4,0,2.5-1.1,2.5-2.5s-1.1-2.5-2.5-2.5
		s-2.5,1.1-2.5,2.5S554.9,534.3,556.2,534.3L556.2,534.3z"/>
	<path fill-rule="evenodd" clip-rule="evenodd" fill="#FFFFFF" d="M423.4,656.4c1.4,0,2.5-1.1,2.5-2.4s-1.1-2.5-2.5-2.5
		s-2.5,1.1-2.5,2.5S422.1,656.4,423.4,656.4L423.4,656.4z"/>
	<path fill-rule="evenodd" clip-rule="evenodd" fill="#FFFFFF" d="M475.3,666.3c1.4,0,2.5-1.1,2.5-2.5c0-1.4-1.1-2.5-2.5-2.5
		c-1.4,0-2.5,1.1-2.5,2.5C472.8,665.1,473.9,666.3,475.3,666.3L475.3,666.3z"/>
	<path fill-rule="evenodd" clip-rule="evenodd" fill="#FFFFFF" d="M690.1,851.4c1.4,0,2.5-1.1,2.5-2.5c0-1.4-1.1-2.5-2.5-2.5
		s-2.5,1.1-2.5,2.5C687.6,850.4,688.8,851.4,690.1,851.4L690.1,851.4z"/>
	<path fill-rule="evenodd" clip-rule="evenodd" fill="#FFFFFF" d="M623.5,895.9c1.4,0,2.5-1.1,2.5-2.5c0-1.4-1.1-2.4-2.5-2.4
		s-2.5,1.1-2.5,2.4C621,894.8,622.1,895.9,623.5,895.9L623.5,895.9z"/>
	<path fill-rule="evenodd" clip-rule="evenodd" fill="#FFFFFF" d="M181.4,693.4c1.4,0,2.5-1.1,2.5-2.5c0-1.4-1.1-2.5-2.5-2.5
		c-1.4,0-2.5,1.1-2.5,2.5C179,692.3,180.1,693.4,181.4,693.4L181.4,693.4z"/>
	<path fill-rule="evenodd" clip-rule="evenodd" fill="#FFFFFF" d="M801.3,646.5c1.4,0,2.5-1.1,2.5-2.5s-1.1-2.5-2.5-2.5
		s-2.5,1.1-2.5,2.5S799.9,646.5,801.3,646.5L801.3,646.5z"/>
	<path fill-rule="evenodd" clip-rule="evenodd" fill="#FFFFFF" d="M1030.9,750.2c1.4,0,2.5-1.1,2.5-2.5c0-1.4-1.1-2.5-2.5-2.5
		s-2.5,1.1-2.5,2.5C1028.4,749.1,1029.6,750.2,1030.9,750.2L1030.9,750.2z"/>
	<path fill-rule="evenodd" clip-rule="evenodd" fill="#FFFFFF" d="M1245.8,547.7c1.4,0,2.5-1.1,2.5-2.5c0-1.4-1.1-2.5-2.5-2.5
		s-2.5,1.1-2.5,2.5C1243.3,546.6,1244.4,547.7,1245.8,547.7L1245.8,547.7z"/>
	<path fill-rule="evenodd" clip-rule="evenodd" fill="#FFFFFF" d="M1403.8,352.6c1.4,0,2.5-1.1,2.5-2.5c0-1.4-1.1-2.5-2.5-2.5
		s-2.5,1.1-2.5,2.5C1401.3,351.5,1402.5,352.6,1403.8,352.6L1403.8,352.6z"/>
	<path fill-rule="evenodd" clip-rule="evenodd" fill="#FFFFFF" d="M1364.3,258.8c1.4,0,2.5-1.1,2.5-2.5c0-1.4-1.1-2.5-2.5-2.5
		s-2.5,1.1-2.5,2.5C1361.8,257.7,1362.9,258.8,1364.3,258.8L1364.3,258.8z"/>
	<path fill-rule="evenodd" clip-rule="evenodd" fill="#FFFFFF" d="M1476,207.8c1.4,0,2.5-1.1,2.5-2.4c0-1.4-1.1-2.5-2.5-2.5
		s-2.4,1.1-2.4,2.5C1473.5,206.7,1474.6,207.8,1476,207.8L1476,207.8z"/>
	<path fill-rule="evenodd" clip-rule="evenodd" fill="#FFFFFF" d="M1554.5,202c1.4,0,2.5-1.1,2.5-2.5c0-1.4-1.1-2.5-2.5-2.5
		s-2.5,1.1-2.5,2.5C1552,200.9,1553.1,202,1554.5,202L1554.5,202z"/>
	<path fill-rule="evenodd" clip-rule="evenodd" fill="#FFFFFF" d="M1455.5,162c1.4,0,2.5-1.1,2.5-2.5c0-1.4-1.1-2.5-2.5-2.5
		s-2.5,1.1-2.5,2.5C1453,161,1454.1,162,1455.5,162L1455.5,162z"/>
	<path fill-rule="evenodd" clip-rule="evenodd" fill="#FFFFFF" d="M1307.5,44c1.4,0,2.5-1.1,2.5-2.5c0-1.4-1.1-2.5-2.5-2.5
		s-2.5,1.1-2.5,2.5C1305,42.8,1306.1,44,1307.5,44L1307.5,44z"/>
	<path fill-rule="evenodd" clip-rule="evenodd" fill="#FFFFFF" d="M1675.5,44c1.4,0,2.5-1.1,2.5-2.5c0-1.4-1.1-2.5-2.5-2.5
		s-2.5,1.1-2.5,2.5C1673,42.8,1674.1,44,1675.5,44L1675.5,44z"/>
	<path fill-rule="evenodd" clip-rule="evenodd" fill="#FFFFFF" d="M1665.6,234.1c1.4,0,2.5-1.1,2.5-2.5c0-1.4-1.1-2.5-2.5-2.5
		s-2.5,1.1-2.5,2.5C1663.1,233,1664.2,234.1,1665.6,234.1L1665.6,234.1z"/>
	<path fill-rule="evenodd" clip-rule="evenodd" fill="#FFFFFF" d="M1542.1,476.1c1.4,0,2.5-1.1,2.5-2.5c0-1.4-1.1-2.5-2.5-2.5
		s-2.5,1.1-2.5,2.5C1539.6,475,1540.7,476.1,1542.1,476.1L1542.1,476.1z"/>
	<path fill-rule="evenodd" clip-rule="evenodd" fill="#FFFFFF" d="M1653.2,582.3c1.4,0,2.5-1.1,2.5-2.5s-1.1-2.5-2.5-2.5
		s-2.5,1.1-2.5,2.5S1651.9,582.3,1653.2,582.3L1653.2,582.3z"/>
	<path fill-rule="evenodd" clip-rule="evenodd" fill="#FFFFFF" d="M1594,757.6c1.4,0,2.5-1.1,2.5-2.5c0-1.4-1.1-2.4-2.5-2.4
		c-1.4,0-2.5,1.1-2.5,2.4C1591.5,756.5,1592.6,757.6,1594,757.6L1594,757.6z"/>
	<path fill-rule="evenodd" clip-rule="evenodd" fill="#FFFFFF" d="M1275.4,742.8c1.4,0,2.5-1.1,2.5-2.5s-1.1-2.5-2.5-2.5
		s-2.5,1.1-2.5,2.5S1274,742.8,1275.4,742.8L1275.4,742.8z"/>
	<path fill-rule="evenodd" clip-rule="evenodd" fill="#FFFFFF" d="M1144.5,863.8c1.4,0,2.5-1.1,2.5-2.5c0-1.4-1.1-2.5-2.5-2.5
		s-2.5,1.1-2.5,2.5C1142.1,862.7,1143.2,863.8,1144.5,863.8L1144.5,863.8z"/>
	<path fill-rule="evenodd" clip-rule="evenodd" fill="#FFFFFF" d="M1028.5,127.9c1.4,0,2.4-1.1,2.4-2.5s-1.1-2.5-2.4-2.5
		c-1.4,0-2.5,1.1-2.5,2.5S1027.1,127.9,1028.5,127.9L1028.5,127.9z"/>
	<path fill-rule="evenodd" clip-rule="evenodd" fill="#FFFFFF" d="M134.5,56.3c1.4,0,2.4-1.1,2.4-2.5c0-1.4-1.1-2.5-2.4-2.5
		c-1.4,0-2.5,1.1-2.5,2.5C132.1,55.2,133.1,56.3,134.5,56.3L134.5,56.3z"/>
	<path fill-rule="evenodd" clip-rule="evenodd" fill="#FFFFFF" d="M148.7,69.5c2.3,0,4.1-1.8,4.1-4.1c0-2.2-1.8-4.1-4.1-4.1
		c-2.2,0-4.1,1.9-4.1,4.1C144.6,67.7,146.5,69.5,148.7,69.5L148.7,69.5z"/>
	<path fill-rule="evenodd" clip-rule="evenodd" fill="#FFFFFF" d="M283.1,36.3c2.2,0,4.1-1.8,4.1-4.1c0-2.2-1.9-4.1-4.1-4.1
		c-2.3,0-4.1,1.9-4.1,4.1C279,34.5,280.8,36.3,283.1,36.3L283.1,36.3z"/>
	<path fill-rule="evenodd" clip-rule="evenodd" fill="#FFFFFF" d="M332.5,83.2c2.2,0,4.1-1.9,4.1-4.1c0-2.3-1.9-4.1-4.1-4.1
		c-2.3,0-4.1,1.8-4.1,4.1C328.4,81.4,330.2,83.2,332.5,83.2L332.5,83.2z"/>
	<path fill-rule="evenodd" clip-rule="evenodd" fill="#FFFFFF" d="M644.8,59.8c2.3,0,4.1-1.9,4.1-4.1c0-2.3-1.8-4.1-4.1-4.1
		c-2.2,0-4.1,1.9-4.1,4.1C640.7,57.9,642.6,59.8,644.8,59.8L644.8,59.8z"/>
	<path fill-rule="evenodd" clip-rule="evenodd" fill="#FFFFFF" d="M269.9,382.4c2.2,0,4.1-1.8,4.1-4.1c0-2.2-1.9-4.1-4.1-4.1
		c-2.3,0-4.1,1.9-4.1,4.1C265.8,380.6,267.6,382.4,269.9,382.4L269.9,382.4z"/>
	<path fill-rule="evenodd" clip-rule="evenodd" fill="#FFFFFF" d="M576.1,725.7c2.2,0,4.1-1.8,4.1-4.1c0-2.2-1.9-4.1-4.1-4.1
		c-2.3,0-4.1,1.9-4.1,4.1C572,723.8,573.8,725.7,576.1,725.7L576.1,725.7z"/>
	<path fill-rule="evenodd" clip-rule="evenodd" fill="#FFFFFF" d="M57.5,883.7c2.3,0,4.1-1.9,4.1-4.1c0-2.2-1.8-4.1-4.1-4.1
		c-2.2,0-4.1,1.9-4.1,4.1C53.4,881.9,55.3,883.7,57.5,883.7L57.5,883.7z"/>
	<path fill-rule="evenodd" clip-rule="evenodd" fill="#FFFFFF" d="M1005.8,915.8c2.3,0,4.1-1.8,4.1-4.1c0-2.2-1.8-4.1-4.1-4.1
		c-2.2,0-4.1,1.9-4.1,4.1C1001.7,914,1003.5,915.8,1005.8,915.8L1005.8,915.8z"/>
	<path fill-rule="evenodd" clip-rule="evenodd" fill="#FFFFFF" d="M1196.4,481.2c2.3,0,4.1-1.9,4.1-4.1c0-2.3-1.8-4.1-4.1-4.1
		c-2.2,0-4.1,1.8-4.1,4.1C1192.3,479.3,1194.1,481.2,1196.4,481.2L1196.4,481.2z"/>
	<path fill-rule="evenodd" clip-rule="evenodd" fill="#FFFFFF" d="M1591.6,680.5c2.3,0,4.1-1.8,4.1-4.1c0-2.2-1.8-4.1-4.1-4.1
		c-2.2,0-4.1,1.9-4.1,4.1C1587.5,678.7,1589.4,680.5,1591.6,680.5L1591.6,680.5z"/>
	<path fill-rule="evenodd" clip-rule="evenodd" fill="#FFFFFF" d="M938.9,227.1c2.3,0,4.1-1.9,4.1-4.1c0-2.3-1.8-4.1-4.1-4.1
		c-2.2,0-4.1,1.8-4.1,4.1C934.8,225.3,936.6,227.1,938.9,227.1L938.9,227.1z"/>
	<path fill-rule="evenodd" clip-rule="evenodd" fill="#FFFFFF" d="M1586.1,70.5c2.2,0,4.1-1.9,4.1-4.1c0-2.3-1.9-4.1-4.1-4.1
		s-4.1,1.8-4.1,4.1C1582,68.6,1583.9,70.5,1586.1,70.5L1586.1,70.5z"/>
	<path fill-rule="evenodd" clip-rule="evenodd" fill="#FFFFFF" d="M680.7,449.9c0.9,0,1.7-0.8,1.7-1.7c0-0.9-0.8-1.7-1.7-1.7
		c-0.9,0-1.7,0.8-1.7,1.7C679,449.2,679.8,449.9,680.7,449.9L680.7,449.9z"/>
	<path fill-rule="evenodd" clip-rule="evenodd" fill="#FFFFFF" d="M679,163.9c0.9,0,1.7-0.8,1.7-1.7c0-0.9-0.7-1.7-1.7-1.7
		c-0.9,0-1.7,0.8-1.7,1.7C677.3,163.1,678.1,163.9,679,163.9L679,163.9z"/>
	<path fill-rule="evenodd" clip-rule="evenodd" fill="#FFFFFF" d="M966.7,68.5c0.9,0,1.7-0.8,1.7-1.7s-0.7-1.7-1.7-1.7
		s-1.7,0.7-1.7,1.7S965.8,68.5,966.7,68.5L966.7,68.5z"/>
	<path fill-rule="evenodd" clip-rule="evenodd" fill="#FFFFFF" d="M1317.4,300.6c0.9,0,1.7-0.8,1.7-1.7c0-0.9-0.8-1.7-1.7-1.7
		c-0.9,0-1.7,0.8-1.7,1.7C1315.7,299.9,1316.4,300.6,1317.4,300.6L1317.4,300.6z"/>
	<path fill-rule="evenodd" clip-rule="evenodd" fill="#FFFFFF" d="M1566.8,300.6c0.9,0,1.7-0.8,1.7-1.7c0-0.9-0.7-1.7-1.7-1.7
		c-0.9,0-1.7,0.8-1.7,1.7C1565.1,299.9,1565.8,300.6,1566.8,300.6L1566.8,300.6z"/>
	<path fill-rule="evenodd" clip-rule="evenodd" fill="#FFFFFF" d="M1628.5,520.4c0.9,0,1.7-0.7,1.7-1.7s-0.8-1.7-1.7-1.7
		c-0.9,0-1.7,0.8-1.7,1.7S1627.6,520.4,1628.5,520.4L1628.5,520.4z"/>
	<path fill-rule="evenodd" clip-rule="evenodd" fill="#FFFFFF" d="M1043.2,540.2c0.9,0,1.7-0.8,1.7-1.7s-0.8-1.7-1.7-1.7
		c-0.9,0-1.7,0.7-1.7,1.7S1042.3,540.2,1043.2,540.2L1043.2,540.2z"/>
	<path fill-rule="evenodd" clip-rule="evenodd" fill="#FFFFFF" d="M1139.6,732.8c0.9,0,1.7-0.8,1.7-1.7c0-0.9-0.8-1.7-1.7-1.7
		c-0.9,0-1.7,0.8-1.7,1.7C1137.9,732,1138.6,732.8,1139.6,732.8L1139.6,732.8z"/>
	<path fill-rule="evenodd" clip-rule="evenodd" fill="#FFFFFF" d="M428.4,409.3c0.9,0,1.7-0.7,1.7-1.7s-0.8-1.7-1.7-1.7
		c-0.9,0-1.7,0.8-1.7,1.7S427.4,409.3,428.4,409.3L428.4,409.3z"/>
	<path fill-rule="evenodd" clip-rule="evenodd" fill="#FFFFFF" d="M257.9,216.1c0.9,0,1.7-0.8,1.7-1.7c0-0.9-0.8-1.7-1.7-1.7
		c-0.9,0-1.7,0.8-1.7,1.7C256.2,215.4,257,216.1,257.9,216.1L257.9,216.1z"/>
	<path fill-rule="evenodd" clip-rule="evenodd" fill="#FFFFFF" d="M253,340.2c0.9,0,1.7-0.8,1.7-1.7c0-0.9-0.8-1.7-1.7-1.7
		c-0.9,0-1.7,0.8-1.7,1.7C251.3,339.4,252.1,340.2,253,340.2L253,340.2z"/>
	<path fill-rule="evenodd" clip-rule="evenodd" fill="#FFFFFF" d="M159.2,513c0.9,0,1.7-0.8,1.7-1.7s-0.8-1.7-1.7-1.7
		c-0.9,0-1.7,0.7-1.7,1.7S158.2,513,159.2,513L159.2,513z"/>
	<path fill-rule="evenodd" clip-rule="evenodd" fill="#FFFFFF" d="M215.8,178.1c0.9,0,1.7-0.7,1.7-1.7c0-0.9-0.8-1.7-1.7-1.7
		c-0.9,0-1.7,0.8-1.7,1.7C214.1,177.4,214.9,178.1,215.8,178.1L215.8,178.1z"/>
	<path fill-rule="evenodd" clip-rule="evenodd" fill="#FFFFFF" d="M371.6,325.4c0.9,0,1.7-0.8,1.7-1.7c0-0.9-0.7-1.7-1.7-1.7
		c-0.9,0-1.7,0.8-1.7,1.7C369.8,324.6,370.6,325.4,371.6,325.4L371.6,325.4z"/>
	<path fill-rule="evenodd" clip-rule="evenodd" fill="#FFFFFF" d="M194.1,875.6c0.9,0,1.7-0.8,1.7-1.7c0-0.9-0.8-1.7-1.7-1.7
		c-0.9,0-1.7,0.8-1.7,1.7C192.4,874.8,193.1,875.6,194.1,875.6L194.1,875.6z"/>
	<path fill-rule="evenodd" clip-rule="evenodd" fill="#FFFFFF" d="M544.4,940.2c0.9,0,1.7-0.8,1.7-1.7c0-0.9-0.7-1.7-1.7-1.7
		c-0.9,0-1.7,0.8-1.7,1.7C542.7,939.5,543.5,940.2,544.4,940.2L544.4,940.2z"/>
	<path fill-rule="evenodd" clip-rule="evenodd" fill="#FFFFFF" d="M1692.7,884.9c0.9,0,1.7-0.8,1.7-1.7c0-0.9-0.8-1.7-1.7-1.7
		c-0.9,0-1.7,0.8-1.7,1.7C1691.1,884.2,1691.8,884.9,1692.7,884.9L1692.7,884.9z"/>
	<path fill-rule="evenodd" clip-rule="evenodd" fill="#FFFFFF" d="M1332.9,647.1c0.9,0,1.7-0.8,1.7-1.7s-0.8-1.7-1.7-1.7
		c-0.9,0-1.7,0.7-1.7,1.7S1332,647.1,1332.9,647.1L1332.9,647.1z"/>
</g>
</svg>
